<?xml version="1.0" encoding="utf-8"?>
<!-- Generator: Adobe Illustrator 16.0.0, SVG Export Plug-In . SVG Version: 6.00 Build 0)  -->
<!DOCTYPE svg PUBLIC "-//W3C//DTD SVG 1.1//EN" "http://www.w3.org/Graphics/SVG/1.1/DTD/svg11.dtd">
<svg version="1.1" id="Layer_1" xmlns="http://www.w3.org/2000/svg" xmlns:xlink="http://www.w3.org/1999/xlink" x="0px" y="0px"
	 width="161.09px" height="36.48px" viewBox="0 0 161.09 36.48" enable-background="new 0 0 161.09 36.48" xml:space="preserve">
<g>
	<path d="M4.7,9.5c-1.28,0-2.38-0.46-3.31-1.39C0.46,7.18,0,6.08,0,4.8c0-1.31,0.46-2.44,1.39-3.38C2.32,0.47,3.42,0,4.7,0
		c1.31,0,2.44,0.47,3.38,1.42C9.03,2.36,9.5,3.49,9.5,4.8c0,1.28-0.47,2.38-1.42,3.31C7.14,9.04,6.02,9.5,4.7,9.5z M9.12,12.67
		v23.28H0.38V12.67H9.12z"/>
	<path d="M16.13,20.35l-2.3-6.29c1.34-0.61,2.94-1.13,4.8-1.56c1.86-0.43,3.68-0.65,5.47-0.65c3.1,0,5.49,0.86,7.15,2.59
		c1.66,1.73,2.5,4.1,2.5,7.1v14.4h-4.22l-2.5-2.4c-1.54,1.95-3.28,2.93-5.23,2.93c-2.88,0-5.06-0.72-6.53-2.16
		c-1.47-1.44-2.21-3.39-2.21-5.86c0-4.54,3.04-6.82,9.12-6.82h2.78c-0.13-0.9-0.46-1.57-0.98-2.02c-0.53-0.45-1.21-0.67-2.04-0.67
		c-0.77,0-1.7,0.14-2.81,0.41C18.02,19.64,17.02,19.97,16.13,20.35z M20.35,28.32c0,0.48,0.15,0.87,0.46,1.18
		c0.3,0.3,0.68,0.46,1.13,0.46c0.99,0,2.02-0.43,3.07-1.3v-2.21h-2.69c-0.58,0-1.05,0.18-1.42,0.53
		C20.54,27.33,20.35,27.78,20.35,28.32z"/>
	<path d="M77.95,20.93v15.02h-8.74V21.74c0-0.9-0.14-1.58-0.41-2.06c-0.27-0.48-0.89-0.72-1.85-0.72c-0.42,0-1.07,0.14-1.97,0.43
		c-0.9,0.29-1.71,0.59-2.45,0.91v0.62v15.02h-8.74V21.74c0-0.9-0.14-1.58-0.41-2.06c-0.27-0.48-0.89-0.72-1.85-0.72
		c-0.42,0-1.08,0.14-1.99,0.43s-1.74,0.59-2.47,0.91v15.65h-8.74V12.67h5.18l1.54,2.4c3.39-2.11,6.48-3.17,9.26-3.17
		c3.07,0,5.28,0.96,6.62,2.88c3.17-1.92,6.1-2.88,8.78-2.88C75.22,11.9,77.95,14.91,77.95,20.93z"/>
	<path d="M91.3,20.3v15.65h-8.74V12.67h5.18l1.54,2.4c3.39-2.11,6.56-3.17,9.5-3.17c2.82,0,4.93,0.82,6.34,2.47
		c1.41,1.65,2.11,3.83,2.11,6.55v15.02h-8.74V21.74c0-0.8-0.19-1.46-0.58-1.99c-0.38-0.53-1.02-0.79-1.92-0.79
		c-0.51,0-1.23,0.14-2.16,0.41C92.91,19.64,92.06,19.95,91.3,20.3z"/>
	<path d="M114.05,20.35l-2.3-6.29c1.34-0.61,2.94-1.13,4.8-1.56c1.86-0.43,3.68-0.65,5.47-0.65c3.1,0,5.49,0.86,7.15,2.59
		c1.66,1.73,2.5,4.1,2.5,7.1v14.4h-4.22l-2.5-2.4c-1.54,1.95-3.28,2.93-5.23,2.93c-2.88,0-5.06-0.72-6.53-2.16
		c-1.47-1.44-2.21-3.39-2.21-5.86c0-4.54,3.04-6.82,9.12-6.82h2.78c-0.13-0.9-0.46-1.57-0.98-2.02c-0.53-0.45-1.21-0.67-2.04-0.67
		c-0.77,0-1.7,0.14-2.81,0.41C115.94,19.64,114.94,19.97,114.05,20.35z M118.27,28.32c0,0.48,0.15,0.87,0.46,1.18
		c0.3,0.3,0.68,0.46,1.13,0.46c0.99,0,2.02-0.43,3.07-1.3v-2.21h-2.69c-0.58,0-1.05,0.18-1.42,0.53
		C118.45,27.33,118.27,27.78,118.27,28.32z"/>
	<path d="M145.49,28.46v7.49h-8.74V2.59l8.74-0.53v17.28l8.69-7.34l5.23,6l-6.19,4.66l7.87,13.3h-9.41l-4.61-8.69L145.49,28.46z"/>
</g>
</svg>
